<?xml version="1.0" encoding="UTF-8" standalone="no"?>
<svg
   width="74mm"
   height="105mm"
   viewBox="0 0 262.20472 372.04724"
   id="svg2"
   version="1.1"
   inkscape:version="1.3.2 (091e20e, 2023-11-25, custom)"
   sodipodi:docname="design-storyboards-back.svg"
   enable-background="new"
   style="background-color:white"
   xmlns:inkscape="http://www.inkscape.org/namespaces/inkscape"
   xmlns:sodipodi="http://sodipodi.sourceforge.net/DTD/sodipodi-0.dtd"
   xmlns="http://www.w3.org/2000/svg"
   xmlns:svg="http://www.w3.org/2000/svg"
   xmlns:rdf="http://www.w3.org/1999/02/22-rdf-syntax-ns#"
   xmlns:cc="http://creativecommons.org/ns#"
   xmlns:dc="http://purl.org/dc/elements/1.1/">
  <defs
     id="defs4" />
  <sodipodi:namedview
     id="base"
     pagecolor="#ffffff"
     bordercolor="#666666"
     borderopacity="1.0"
     inkscape:pageopacity="1"
     inkscape:pageshadow="2"
     inkscape:zoom="2"
     inkscape:cx="132.25"
     inkscape:cy="203.25"
     inkscape:document-units="mm"
     inkscape:current-layer="layer7"
     showgrid="false"
     showguides="false"
     inkscape:guide-bbox="true"
     inkscape:snap-bbox="false"
     inkscape:bbox-nodes="true"
     inkscape:object-nodes="true"
     inkscape:snap-page="true"
     inkscape:snap-grids="false"
     inkscape:window-width="1920"
     inkscape:window-height="1017"
     inkscape:window-x="-8"
     inkscape:window-y="-8"
     inkscape:window-maximized="1"
     inkscape:snap-others="false"
     inkscape:snap-nodes="true"
     inkscape:showpageshadow="2"
     inkscape:pagecheckerboard="0"
     inkscape:deskcolor="#d1d1d1">
    <sodipodi:guide
       position="19.48819,143.57143"
       orientation="1,0"
       id="guide3342"
       inkscape:label=""
       inkscape:color="rgb(0,0,255)"
       inkscape:locked="false" />
    <sodipodi:guide
       position="242.71654,160.71429"
       orientation="1,0"
       id="guide3344"
       inkscape:label=""
       inkscape:color="rgb(0,0,255)"
       inkscape:locked="false" />
    <sodipodi:guide
       position="100.71429,10.629921"
       orientation="0,1"
       id="guide3346"
       inkscape:label=""
       inkscape:color="rgb(0,0,255)"
       inkscape:locked="false" />
    <sodipodi:guide
       position="75.714288,361.41732"
       orientation="0,1"
       id="guide3348"
       inkscape:label=""
       inkscape:color="rgb(0,0,255)"
       inkscape:locked="false" />
    <sodipodi:guide
       position="242.71654,289.15617"
       orientation="1,0"
       id="guide4173"
       inkscape:locked="false" />
    <sodipodi:guide
       position="-54.642858,21.259842"
       orientation="0,1"
       id="guide4176"
       inkscape:label=""
       inkscape:color="rgb(0,0,255)"
       inkscape:locked="false" />
    <sodipodi:guide
       position="0,350.7874"
       orientation="0,1"
       id="guide4178"
       inkscape:label=""
       inkscape:color="rgb(0,0,255)"
       inkscape:locked="false" />
    <sodipodi:guide
       position="30.118111,388.21428"
       orientation="1,0"
       id="guide4180"
       inkscape:label=""
       inkscape:color="rgb(0,0,255)"
       inkscape:locked="false" />
    <sodipodi:guide
       position="232.08662,385.71428"
       orientation="1,0"
       id="guide4182"
       inkscape:label=""
       inkscape:color="rgb(0,0,255)"
       inkscape:locked="false" />
    <sodipodi:guide
       position="40.748033,260.35714"
       orientation="1,0"
       id="guide4252"
       inkscape:label=""
       inkscape:color="rgb(0,0,255)"
       inkscape:locked="false" />
    <sodipodi:guide
       position="221.4567,323.92857"
       orientation="1,0"
       id="guide4254"
       inkscape:label=""
       inkscape:color="rgb(0,0,255)"
       inkscape:locked="false" />
    <sodipodi:guide
       position="-107.14286,340.15748"
       orientation="0,1"
       id="guide4256"
       inkscape:label=""
       inkscape:color="rgb(0,0,255)"
       inkscape:locked="false" />
    <sodipodi:guide
       position="-111.42857,31.889764"
       orientation="0,1"
       id="guide4258"
       inkscape:label=""
       inkscape:color="rgb(0,0,255)"
       inkscape:locked="false" />
    <sodipodi:guide
       position="-60.356616,308.26772"
       orientation="0,1"
       id="guide4262"
       inkscape:label=""
       inkscape:color="rgb(0,0,255)"
       inkscape:locked="false" />
    <sodipodi:guide
       position="-56.063468,297.63779"
       orientation="0,1"
       id="guide4269"
       inkscape:label=""
       inkscape:color="rgb(0,0,255)"
       inkscape:locked="false" />
    <sodipodi:guide
       position="93.897641,308.6016"
       orientation="1,0"
       id="guide4271"
       inkscape:label=""
       inkscape:color="rgb(0,0,255)"
       inkscape:locked="false" />
    <sodipodi:guide
       position="99.212601,340.15748"
       orientation="1,0"
       id="guide4273"
       inkscape:label=""
       inkscape:color="rgb(0,0,255)"
       inkscape:locked="false" />
    <sodipodi:guide
       position="-60.500002,279.92126"
       orientation="0,1"
       id="guide4303"
       inkscape:label=""
       inkscape:color="rgb(0,0,255)"
       inkscape:locked="false" />
    <sodipodi:guide
       position="-102.5,269.29134"
       orientation="0,1"
       id="guide4314"
       inkscape:label=""
       inkscape:color="rgb(0,0,255)"
       inkscape:locked="false" />
    <sodipodi:guide
       position="194.8819,223.95843"
       orientation="1,0"
       id="guide4201"
       inkscape:label=""
       inkscape:color="rgb(0,0,255)"
       inkscape:locked="false" />
    <sodipodi:guide
       position="184.25197,197.75"
       orientation="1,0"
       id="guide4243"
       inkscape:label=""
       inkscape:color="rgb(0,0,255)"
       inkscape:locked="false" />
    <inkscape:grid
       id="grid1"
       units="mm"
       originx="0"
       originy="0"
       spacingx="3.5433072"
       spacingy="3.543307"
       empcolor="#0099e5"
       empopacity="0.30196078"
       color="#0099e5"
       opacity="0.14901961"
       empspacing="5"
       dotted="false"
       gridanglex="30"
       gridanglez="30"
       visible="false" />
  </sodipodi:namedview>
  <metadata
     id="metadata7">
    <rdf:RDF>
      <cc:Work
         rdf:about="">
        <dc:format>image/svg+xml</dc:format>
        <dc:type
           rdf:resource="http://purl.org/dc/dcmitype/StillImage" />
        <dc:title />
      </cc:Work>
    </rdf:RDF>
  </metadata>
  <g
     inkscape:label="Cut line"
     inkscape:groupmode="layer"
     id="layer1"
     transform="translate(0,-680.31496)"
     style="display:inline"
     sodipodi:insensitive="true">
    <path
       style="fill:none;fill-rule:evenodd;stroke:#808080;stroke-width:0.708661;stroke-linecap:butt;stroke-linejoin:miter;stroke-miterlimit:4;stroke-dasharray:2.83465, 2.83465;stroke-dashoffset:0;stroke-opacity:1"
       d="M 19.488189,690.94488 V 1041.7323 H 242.71653 V 690.94488 Z"
       id="path3350"
       inkscape:connector-curvature="0"
       transform="translate(4.3385302e-7)" />
  </g>
  <g
     inkscape:groupmode="layer"
     id="layer2"
     inkscape:label="Top Separator"
     style="display:inline"
     sodipodi:insensitive="true">
    <path
       inkscape:connector-curvature="0"
       style="fill:none;fill-opacity:1;stroke:none;stroke-width:0.708661;stroke-miterlimit:4;stroke-dasharray:2.83465, 2.83465;stroke-dashoffset:0;stroke-opacity:1"
       d="m 42.883734,21.259066 c -7.071438,0 -12.765624,6.544709 -12.765624,14.673828 V 74.409453 H 232.08685 V 35.932894 c 0,-8.129119 -5.69224,-14.673828 -12.76367,-14.673828 z"
       id="rect4195-3" />
  </g>
  <g
     inkscape:groupmode="layer"
     id="layer8"
     inkscape:label="Separator"
     style="display:inline"
     sodipodi:insensitive="true">
    <rect
       style="display:inline;fill:#ff7f2a;fill-opacity:1;stroke:none;stroke-width:1;stroke-miterlimit:4;stroke-dasharray:none;stroke-dashoffset:0;stroke-opacity:1"
       id="rect4178"
       width="134.64568"
       height="17.716536"
       x="30.118084"
       y="74.409447" />
    <text
       xml:space="preserve"
       style="font-style:normal;font-weight:normal;line-height:0%;font-family:sans-serif;letter-spacing:0px;word-spacing:0px;display:inline;fill:#000000;fill-opacity:1;stroke:none;stroke-width:1px;stroke-linecap:butt;stroke-linejoin:miter;stroke-opacity:1"
       x="39.935017"
       y="87.861458"
       id="text4180"><tspan
         sodipodi:role="line"
         id="tspan4182"
         x="39.935017"
         y="87.861458"
         style="font-style:normal;font-variant:normal;font-weight:bold;font-stretch:normal;font-size:12.5px;line-height:1.25;font-family:Lato;-inkscape-font-specification:'Lato Bold';fill:#ffffff">Plan</tspan></text>
    <rect
       y="74.409447"
       x="164.76376"
       height="17.716536"
       width="67.322838"
       id="rect4191"
       style="display:inline;fill:#e6e6e6;fill-opacity:1;stroke:none;stroke-width:1;stroke-miterlimit:4;stroke-dasharray:none;stroke-dashoffset:0;stroke-opacity:1" />
    <text
       xml:space="preserve"
       style="font-style:normal;font-weight:normal;line-height:0%;font-family:sans-serif;letter-spacing:0px;word-spacing:0px;fill:#1a1a1a;fill-opacity:1;stroke:none;stroke-width:1px;stroke-linecap:butt;stroke-linejoin:miter;stroke-opacity:1"
       x="184.26756"
       y="87.789589"
       id="text4193"><tspan
         sodipodi:role="line"
         id="tspan4195"
         x="184.26756"
         y="87.789589"
         style="font-style:normal;font-variant:normal;font-weight:500;font-stretch:normal;font-size:12.5px;line-height:1.25;font-family:Lato;-inkscape-font-specification:'Lato Medium';fill:#1a1a1a">50 min</tspan></text>
  </g>
  <g
     inkscape:groupmode="layer"
     id="layer7"
     inkscape:label="Title"
     sodipodi:insensitive="true">
    <path
       style="fill:none;fill-rule:evenodd;stroke:none;stroke-width:1px;stroke-linecap:butt;stroke-linejoin:miter;stroke-opacity:1"
       d="m 99.212598,31.889763 v 31.88976 H 221.45669 v -31.88976 z"
       id="pathdsb4300"
       inkscape:connector-curvature="0" />
    <text
       xml:space="preserve"
       style="font-style:normal;font-weight:normal;line-height:0.01%;font-family:sans-serif;text-align:start;letter-spacing:0px;word-spacing:0px;text-anchor:start;fill:#000000;fill-opacity:1;stroke:none;stroke-width:1px;stroke-linecap:butt;stroke-linejoin:miter;stroke-opacity:1"
       x="103.40665"
       y="49.878952"
       id="text63"><tspan
         sodipodi:role="line"
         x="103.40664"
         y="49.878952"
         id="tspan63"><tspan
           x="103.40664"
           y="49.878952"
           style="font-weight:bold;font-size:13.375px;line-height:1.25;font-family:Roboto;-inkscape-font-specification:'Roboto Bold';text-align:start;text-anchor:start"
           id="tspan62">Design Storyboards</tspan></tspan></text>
  </g>
  <g
     inkscape:groupmode="layer"
     id="layer6"
     inkscape:label="Logo"
     style="display:inline"
     sodipodi:insensitive="true">
    <path
       style="fill:none;fill-rule:evenodd;stroke:none;stroke-width:1px;stroke-linecap:butt;stroke-linejoin:miter;stroke-opacity:1"
       d="m 40.748032,31.889763 v 31.88976 h 53.149606 v -31.88976 z"
       id="path4213"
       inkscape:connector-curvature="0" />
    <g
       transform="matrix(1.4048469,0,0,1.4048468,-345.46444,-121.86461)"
       inkscape:label="designstoryboards"
       id="layer33">
      <g
         id="g4911">
        <rect
           style="opacity:1;fill:#000000;fill-opacity:1;stroke:none;stroke-width:0.565;stroke-linecap:round;stroke-miterlimit:4;stroke-dasharray:none;stroke-opacity:1"
           id="rect4897"
           width="21.475473"
           height="21.475473"
           x="276.95676"
           y="109.44565" />
        <path
           style="fill:#ffffff;fill-opacity:1;stroke:#000000;stroke-width:0.465;stroke-linecap:butt;stroke-linejoin:miter;stroke-miterlimit:4;stroke-dasharray:none;stroke-opacity:1"
           d="m 275.74036,123.21146 4.43267,2.20203 -0.58237,6.61855 c 0,0 1.06882,-1.9125 1.53938,-2.85895 0.35388,-0.71176 1.01625,-2.10092 1.01625,-2.10092 l 3.23154,3.03137 c 0,0 -1.38299,-3.71267 -1.57287,-5.66237 -0.0361,-0.37112 -0.0355,-0.76274 0.0858,-1.11532 0.44304,-1.2875 2.25923,-3.40314 2.25923,-3.40314 l -5.20479,1.65867 z"
           id="path4861"
           inkscape:connector-curvature="0"
           sodipodi:nodetypes="cccsccssccc" />
        <path
           style="fill:#ffffff;fill-opacity:1;stroke:#000000;stroke-width:0.465;stroke-linecap:butt;stroke-linejoin:miter;stroke-miterlimit:4;stroke-dasharray:none;stroke-opacity:1"
           d="m 279.48667,121.58138 c -0.14842,-0.2291 -0.22507,-0.53306 -0.17158,-0.80074 0.0591,-0.29561 0.26399,-0.57629 0.51478,-0.74354 0.34065,-0.22718 0.79603,-0.31717 1.2011,-0.25738 0.31234,0.0461 0.63146,0.21153 0.82933,0.45756 0.16824,0.20918 0.24542,0.50421 0.22879,0.77214 -0.019,0.30594 -0.1413,0.63663 -0.3683,0.84262 -0.33502,0.30401 -0.84365,0.49202 -1.29037,0.42059 -0.38505,-0.0616 -0.73173,-0.36398 -0.94375,-0.69125 z"
           id="path4859"
           inkscape:connector-curvature="0"
           sodipodi:nodetypes="aaaaaaaaa" />
        <path
           style="fill:#ffffff;fill-opacity:1;stroke:#000000;stroke-width:0.465;stroke-linecap:butt;stroke-linejoin:miter;stroke-miterlimit:4;stroke-dasharray:none;stroke-opacity:1"
           d="m 287.81582,119.4554 4.28701,1.51663 4.40833,1.35486 c 0,0 -2.03759,0.61797 -2.93214,1.17285 -0.29208,0.18117 -0.70516,0.60748 -0.72799,0.95042 -0.13124,1.97175 -0.12134,4.77233 -0.12134,4.77233 l -1.65817,-4.0039 c 0,0 -1.21382,1.41847 -1.79973,2.02217 -0.59389,0.61192 -1.71885,1.59752 -1.71885,1.59752 0,0 1.72906,-3.43539 2.04239,-5.29809 0.0571,-0.33927 0.0342,-0.7613 -0.0607,-1.09198 -0.32573,-1.13469 -1.71879,-2.99281 -1.71879,-2.99281 z"
           id="path4865"
           inkscape:connector-curvature="0"
           sodipodi:nodetypes="cccssccscsscc" />
        <path
           style="fill:#ffffff;fill-opacity:1;stroke:#000000;stroke-width:0.465;stroke-linecap:butt;stroke-linejoin:miter;stroke-miterlimit:4;stroke-dasharray:none;stroke-opacity:1"
           d="m 290.9502,120.04183 c -0.006,-0.25792 0.0788,-0.54727 0.26289,-0.72798 0.25407,-0.24933 0.65522,-0.35267 1.01108,-0.34377 0.45672,0.0114 0.94371,0.18985 1.27396,0.50554 0.21373,0.2043 0.36881,0.51324 0.36399,0.80887 -0.006,0.36773 -0.19809,0.76117 -0.48532,0.99086 -0.22728,0.18175 -0.55904,0.22312 -0.84931,0.20222 -0.41948,-0.0302 -0.87291,-0.17029 -1.17285,-0.4651 -0.24998,-0.2457 -0.39599,-0.62023 -0.40444,-0.97064 z"
           id="path4863"
           inkscape:connector-curvature="0"
           sodipodi:nodetypes="aaaaaaaaa" />
        <path
           style="fill:#ffffff;fill-opacity:1;stroke:#000000;stroke-width:0.465;stroke-linecap:butt;stroke-linejoin:miter;stroke-miterlimit:4;stroke-dasharray:none;stroke-opacity:1"
           d="m 275.76369,116.64457 c -0.46866,-0.65372 -0.73126,-1.55846 -0.56623,-2.34571 0.16679,-0.79564 0.81478,-1.46866 1.4762,-1.94128 1.11516,-0.79684 2.53234,-1.31458 3.90278,-1.2942 0.98294,0.0146 2.07286,0.31839 2.7704,1.01108 0.60233,0.59816 0.98079,1.54218 0.88974,2.38617 -0.0868,0.80493 -0.72372,1.48875 -1.31442,2.0424 -0.40507,0.37966 -1.45595,0.80887 -1.45595,0.80887 l -0.28312,1.79973 -1.09198,-1.33463 c 0,0 -1.47164,0.39003 -2.18392,0.22243 -0.8228,-0.19359 -1.651,-0.6679 -2.1435,-1.35486 z"
           id="path4867"
           inkscape:connector-curvature="0"
           sodipodi:nodetypes="aaaaaaacccaa" />
        <path
           style="fill:#ffffff;fill-opacity:1;stroke:#000000;stroke-width:0.465;stroke-linecap:butt;stroke-linejoin:miter;stroke-miterlimit:4;stroke-dasharray:none;stroke-opacity:1"
           d="m 299.84776,111.22516 -2.02218,2.70971 2.58839,0.64709 -2.42662,1.25375 0.70776,2.00195 -2.12328,-0.68754 -0.12132,2.91193 -2.06264,-2.38616 -1.69862,0.76842 v -1.47618 l -3.17479,-0.182 2.10304,-1.57729 -1.94127,-1.27397 2.64903,-0.70776 0.0405,-1.96151 1.69862,1.41552 2.06261,-2.24461 0.32356,2.30528 z"
           id="path4869"
           inkscape:connector-curvature="0" />
        <path
           style="fill:none;stroke:#000000;stroke-width:0.565;stroke-linecap:round;stroke-linejoin:miter;stroke-miterlimit:4;stroke-dasharray:none;stroke-opacity:1"
           d="m 278.9587,113.22711 c 0,0 0.41198,-0.41513 0.88977,-0.34377 0.35281,0.0527 0.73123,0.31843 0.6673,0.76842 -0.0728,0.51227 -0.58724,0.6008 -0.6673,0.99087 -0.0487,0.23721 0.13563,0.71368 0.13563,0.71368"
           id="path4871"
           inkscape:connector-curvature="0"
           sodipodi:nodetypes="cssac" />
        <path
           style="fill:none;stroke:#000000;stroke-width:0.565;stroke-linecap:round;stroke-linejoin:miter;stroke-miterlimit:4;stroke-dasharray:none;stroke-opacity:1"
           d="m 295.23721,113.5911 -0.76842,1.71885"
           id="path4878"
           inkscape:connector-curvature="0" />
        <circle
           style="opacity:1;fill:#000000;fill-opacity:1;stroke:none;stroke-width:0.393462;stroke-linecap:round;stroke-miterlimit:4;stroke-dasharray:none;stroke-opacity:1"
           id="path4880"
           cx="294.07446"
           cy="116.14915"
           r="0.33365846" />
        <circle
           style="opacity:1;fill:#000000;fill-opacity:1;stroke:none;stroke-width:0.393462;stroke-linecap:round;stroke-miterlimit:4;stroke-dasharray:none;stroke-opacity:1"
           id="path4880-5"
           cx="280.31357"
           cy="116.32103"
           r="0.33365846" />
      </g>
    </g>
  </g>
  <g
     inkscape:groupmode="layer"
     id="layer5"
     inkscape:label="Border"
     style="display:inline"
     sodipodi:insensitive="true">
    <rect
       style="fill:none;fill-opacity:1;stroke:#000000;stroke-width:0.354331;stroke-miterlimit:4;stroke-dasharray:none;stroke-dashoffset:0;stroke-opacity:1"
       id="rect4187"
       width="201.96851"
       height="329.52756"
       x="30.118111"
       y="21.259844"
       ry="14.6735"
       rx="12.76433" />
  </g>
  <g
     inkscape:groupmode="layer"
     id="layer9"
     inkscape:label="Body"
     sodipodi:insensitive="true">
    <path
       style="fill:none;fill-rule:evenodd;stroke:none;stroke-width:1.09447px;stroke-linecap:butt;stroke-linejoin:miter;stroke-opacity:1"
       d="M 33.716782,94.3184 V 340.15748 H 199.72071 V 94.3184 H 33.716782"
       id="pathdsb4245"
       inkscape:connector-curvature="0" />
    <text
       xml:space="preserve"
       style="font-style:normal;font-weight:normal;line-height:0.85;font-family:sans-serif;letter-spacing:0px;word-spacing:0px;fill:#000000;fill-opacity:1;stroke:none;stroke-width:1px;stroke-linecap:butt;stroke-linejoin:miter;stroke-opacity:1"
       x="33.716797"
       y="110.33686"
       id="text61"><tspan
         sodipodi:role="line"
         x="33.716797"
         y="110.33686"
         id="tspan3"><tspan
           x="33.716797"
           y="110.33686"
           style="font-weight:bold;font-size:8.75px;font-family:Roboto;-inkscape-font-specification:'Roboto Bold';fill:#999999"
           id="tspan1">Etapes</tspan><tspan
           dx="0"
           x="60.44104"
           y="110.33686"
           style="font-weight:bold;font-size:8.75px;font-family:Roboto;-inkscape-font-specification:'Roboto Bold';fill:#999999"
           id="tspan2" /></tspan><tspan
         sodipodi:role="line"
         x="33.716797"
         y="120.53686"
         id="tspan5"><tspan
           x="33.716797"
           y="120.53686"
           style="font-size:8.75px;font-family:Lato;-inkscape-font-specification:Lato;fill:#1a1a1a"
           id="tspan4">Clarifier l'objectif de la collaboration </tspan></tspan><tspan
         sodipodi:role="line"
         x="33.716797"
         y="130.73686"
         id="tspan8"><tspan
           x="33.716797"
           y="130.73686"
           style="font-size:8.75px;font-family:Lato;-inkscape-font-specification:Lato;fill:#1a1a1a"
           id="tspan6">(utiliser les neuf pourquoi</tspan><tspan
           x="147.716797"
           y="130.73686"
           style="font-size:8.75px;font-family:Lato;-inkscape-font-specification:Lato;fill:#1a1a1a"
           id="tspan7">si nécessaire)</tspan></tspan><tspan
         sodipodi:role="line"
         x="33.716797"
         y="140.93684"
         id="tspan11"><tspan
           x="33.716797"
           y="140.93684"
           style="font-size:8.75px;font-family:Lato;-inkscape-font-specification:Lato;fill:#1a1a1a"
           id="tspan9"> </tspan><tspan
           dx="0"
           x="35.405556"
           y="140.93684"
           style="font-size:8.75px;font-family:Lato;-inkscape-font-specification:Lato;fill:#1a1a1a"
           id="tspan10" /></tspan><tspan
         sodipodi:role="line"
         x="33.716797"
         y="151.13686"
         id="tspan13"><tspan
           x="33.716797"
           y="151.13686"
           style="font-size:8.75px;font-family:Lato;-inkscape-font-specification:Lato;fill:#1a1a1a"
           id="tspan12">Évaluez l'approche standard que vous </tspan></tspan><tspan
         sodipodi:role="line"
         x="33.716797"
         y="161.33685"
         id="tspan16"><tspan
           x="33.716797"
           y="161.33685"
           style="font-size:8.75px;font-family:Lato;-inkscape-font-specification:Lato;fill:#1a1a1a"
           id="tspan14">utiliseriez normalement pour cette session.</tspan><tspan
           dx="0"
           x="197.36806"
           y="161.33685"
           style="font-size:8.75px;font-family:Lato;-inkscape-font-specification:Lato;fill:#1a1a1a"
           id="tspan15" /></tspan><tspan
         sodipodi:role="line"
         x="33.716797"
         y="171.53683"
         id="tspan19"><tspan
           x="33.716797"
           y="171.53683"
           style="font-size:8.75px;font-family:Lato;-inkscape-font-specification:Lato;fill:#1a1a1a"
           id="tspan17"> </tspan><tspan
           dx="0"
           x="35.405556"
           y="171.53683"
           style="font-size:8.75px;font-family:Lato;-inkscape-font-specification:Lato;fill:#1a1a1a"
           id="tspan18" /></tspan><tspan
         sodipodi:role="line"
         x="33.716797"
         y="181.73685"
         id="tspan21"><tspan
           x="33.716797"
           y="181.73685"
           style="font-size:8.75px;font-family:Lato;-inkscape-font-specification:Lato;fill:#1a1a1a"
           id="tspan20">Réexaminer et renforcer l'énoncé de </tspan></tspan><tspan
         sodipodi:role="line"
         x="33.716797"
         y="191.93684"
         id="tspan24"><tspan
           x="33.716797"
           y="191.93684"
           style="font-size:8.75px;font-family:Lato;-inkscape-font-specification:Lato;fill:#1a1a1a"
           id="tspan22">l'objectif si nécessaire</tspan><tspan
           dx="0"
           x="116.58809"
           y="191.93684"
           style="font-size:8.75px;font-family:Lato;-inkscape-font-specification:Lato;fill:#1a1a1a"
           id="tspan23" /></tspan><tspan
         sodipodi:role="line"
         x="33.716797"
         y="202.13683"
         id="tspan27"><tspan
           x="33.716797"
           y="202.13683"
           style="font-size:8.75px;font-family:Lato;-inkscape-font-specification:Lato;fill:#1a1a1a"
           id="tspan25"> </tspan><tspan
           dx="0"
           x="35.405556"
           y="202.13683"
           style="font-size:8.75px;font-family:Lato;-inkscape-font-specification:Lato;fill:#1a1a1a"
           id="tspan26" /></tspan><tspan
         sodipodi:role="line"
         x="33.716797"
         y="212.33682"
         id="tspan29"><tspan
           x="33.716797"
           y="212.33682"
           style="font-size:8.75px;font-family:Lato;-inkscape-font-specification:Lato;fill:#1a1a1a"
           id="tspan28">Réexaminer et décider qui doit participer </tspan></tspan><tspan
         sodipodi:role="line"
         x="33.716797"
         y="222.53683"
         id="tspan32"><tspan
           x="33.716797"
           y="222.53683"
           style="font-size:8.75px;font-family:Lato;-inkscape-font-specification:Lato;fill:#1a1a1a"
           id="tspan30">ou être impliqué</tspan><tspan
           dx="0"
           x="95.859306"
           y="222.53683"
           style="font-size:8.75px;font-family:Lato;-inkscape-font-specification:Lato;fill:#1a1a1a"
           id="tspan31" /></tspan><tspan
         sodipodi:role="line"
         x="33.716797"
         y="232.73683"
         id="tspan35"><tspan
           x="33.716797"
           y="232.73683"
           style="font-size:8.75px;font-family:Lato;-inkscape-font-specification:Lato;fill:#1a1a1a"
           id="tspan33"> </tspan><tspan
           dx="0"
           x="35.405556"
           y="232.73683"
           style="font-size:8.75px;font-family:Lato;-inkscape-font-specification:Lato;fill:#1a1a1a"
           id="tspan34" /></tspan><tspan
         sodipodi:role="line"
         x="33.716797"
         y="242.93681"
         id="tspan38"><tspan
           x="33.716797"
           y="242.93681"
           style="font-size:8.75px;font-family:Lato;-inkscape-font-specification:Lato;fill:#1a1a1a"
           id="tspan36">Brainstorming sur les microstructures </tspan><tspan
           dx="0"
           x="179.53555"
           y="242.93681"
           style="font-size:8.75px;font-family:Lato;-inkscape-font-specification:Lato;fill:#1a1a1a"
           id="tspan37" /></tspan><tspan
         sodipodi:role="line"
         x="33.716797"
         y="253.13683"
         id="tspan40"><tspan
           x="33.716797"
           y="253.13683"
           style="font-size:8.75px;font-family:Lato;-inkscape-font-specification:Lato;fill:#1a1a1a"
           id="tspan39">qui pourraient permettre d'atteindre </tspan></tspan><tspan
         sodipodi:role="line"
         x="33.716797"
         y="263.33682"
         id="tspan43"><tspan
           x="33.716797"
           y="263.33682"
           style="font-size:8.75px;font-family:Lato;-inkscape-font-specification:Lato;fill:#1a1a1a"
           id="tspan41">l'objectif fixé</tspan><tspan
           dx="0"
           x="82.078049"
           y="263.33682"
           style="font-size:8.75px;font-family:Lato;-inkscape-font-specification:Lato;fill:#1a1a1a"
           id="tspan42" /></tspan><tspan
         sodipodi:role="line"
         x="33.716797"
         y="273.5368"
         id="tspan46"><tspan
           x="33.716797"
           y="273.5368"
           style="font-size:8.75px;font-family:Lato;-inkscape-font-specification:Lato;fill:#1a1a1a"
           id="tspan44"> </tspan><tspan
           dx="0"
           x="35.405556"
           y="273.5368"
           style="font-size:8.75px;font-family:Lato;-inkscape-font-specification:Lato;fill:#1a1a1a"
           id="tspan45" /></tspan><tspan
         sodipodi:role="line"
         x="33.716797"
         y="283.73682"
         id="tspan49"><tspan
           x="33.716797"
           y="283.73682"
           style="font-size:8.75px;font-family:Lato;-inkscape-font-specification:Lato;fill:#1a1a1a"
           id="tspan47">Sélectionner les meilleures microstructures</tspan><tspan
           dx="0"
           x="199.07434"
           y="283.73682"
           style="font-size:8.75px;font-family:Lato;-inkscape-font-specification:Lato;fill:#1a1a1a"
           id="tspan48" /></tspan><tspan
         sodipodi:role="line"
         x="33.716797"
         y="293.93683"
         id="tspan52"><tspan
           x="33.716797"
           y="293.93683"
           style="font-size:8.75px;font-family:Lato;-inkscape-font-specification:Lato;fill:#1a1a1a"
           id="tspan50">(en choisir une plus une sauvegarde)</tspan><tspan
           dx="0"
           x="170.52306"
           y="293.93683"
           style="font-size:8.75px;font-family:Lato;-inkscape-font-specification:Lato;fill:#1a1a1a"
           id="tspan51" /></tspan><tspan
         sodipodi:role="line"
         x="33.716797"
         y="304.13684"
         id="tspan55"><tspan
           x="33.716797"
           y="304.13684"
           style="font-size:8.75px;font-family:Lato;-inkscape-font-specification:Lato;fill:#1a1a1a"
           id="tspan53"> </tspan><tspan
           dx="0"
           x="35.405556"
           y="304.13684"
           style="font-size:8.75px;font-family:Lato;-inkscape-font-specification:Lato;fill:#1a1a1a"
           id="tspan54" /></tspan><tspan
         sodipodi:role="line"
         x="33.716797"
         y="314.33685"
         id="tspan57"><tspan
           x="33.716797"
           y="314.33685"
           style="font-size:8.75px;font-family:Lato;-inkscape-font-specification:Lato;fill:#1a1a1a"
           id="tspan56">Déterminer les questions et le processus </tspan></tspan><tspan
         sodipodi:role="line"
         x="33.716797"
         y="324.53687"
         id="tspan59"><tspan
           x="33.716797"
           y="324.53687"
           style="font-size:8.75px;font-family:Lato;-inkscape-font-specification:Lato;fill:#1a1a1a"
           id="tspan58">que vous utiliserez pour évaluer votre </tspan></tspan><tspan
         sodipodi:role="line"
         x="33.716797"
         y="334.73688"
         id="tspan61"><tspan
           x="33.716797"
           y="334.73688"
           style="font-size:8.75px;font-family:Lato;-inkscape-font-specification:Lato;fill:#1a1a1a"
           id="tspan60">projet</tspan></tspan></text>
  </g>
  <g
     inkscape:groupmode="layer"
     id="layer4"
     inkscape:label="Body Right"
     style="display:inline"
     sodipodi:insensitive="true">
    <text
       xml:space="preserve"
       style="font-style:normal;font-weight:normal;line-height:0%;font-family:sans-serif;letter-spacing:0px;word-spacing:0px;fill:#1a1a1a;fill-opacity:1;stroke:none;stroke-width:1px;stroke-linecap:butt;stroke-linejoin:miter;stroke-opacity:1"
       x="195.92427"
       y="182.69044"
       id="text4197"><tspan
         sodipodi:role="line"
         id="tspan4199"
         x="195.92427"
         y="182.69044"
         style="font-style:normal;font-variant:normal;font-weight:500;font-stretch:normal;font-size:8.75px;line-height:1.25;font-family:Lato;-inkscape-font-specification:'Lato Medium';fill:#1a1a1a">2-5 min</tspan></text>
    <text
       id="text4227"
       y="118.99852"
       x="195.92427"
       style="font-style:normal;font-weight:normal;line-height:0%;font-family:sans-serif;letter-spacing:0px;word-spacing:0px;fill:#1a1a1a;fill-opacity:1;stroke:none;stroke-width:1px;stroke-linecap:butt;stroke-linejoin:miter;stroke-opacity:1"
       xml:space="preserve"><tspan
         style="font-style:normal;font-variant:normal;font-weight:500;font-stretch:normal;font-size:8.75px;line-height:1.25;font-family:Lato;-inkscape-font-specification:'Lato Medium';fill:#1a1a1a"
         y="118.99852"
         x="195.92427"
         id="tspan4229"
         sodipodi:role="line">2-5 min</tspan></text>
    <text
       id="text4231"
       y="151.9774"
       x="190.84859"
       style="font-style:normal;font-weight:normal;line-height:0%;font-family:sans-serif;letter-spacing:0px;word-spacing:0px;fill:#1a1a1a;fill-opacity:1;stroke:none;stroke-width:1px;stroke-linecap:butt;stroke-linejoin:miter;stroke-opacity:1"
       xml:space="preserve"><tspan
         style="font-style:normal;font-variant:normal;font-weight:500;font-stretch:normal;font-size:8.75px;line-height:1.25;font-family:Lato;-inkscape-font-specification:'Lato Medium';fill:#1a1a1a"
         y="151.9774"
         x="190.84859"
         id="tspan4233"
         sodipodi:role="line">5-10 min</tspan></text>
    <text
       id="text4235"
       y="211.763"
       x="195.92427"
       style="font-style:normal;font-weight:normal;line-height:0%;font-family:sans-serif;letter-spacing:0px;word-spacing:0px;fill:#1a1a1a;fill-opacity:1;stroke:none;stroke-width:1px;stroke-linecap:butt;stroke-linejoin:miter;stroke-opacity:1"
       xml:space="preserve"><tspan
         style="font-style:normal;font-variant:normal;font-weight:500;font-stretch:normal;font-size:8.75px;line-height:1.25;font-family:Lato;-inkscape-font-specification:'Lato Medium';fill:#1a1a1a"
         y="211.763"
         x="195.92427"
         id="tspan4237"
         sodipodi:role="line">2-5 min</tspan></text>
    <path
       style="fill:none;fill-rule:evenodd;stroke:none;stroke-width:1px;stroke-linecap:butt;stroke-linejoin:miter;stroke-opacity:1"
       d="m 194.88189,102.7559 v 237.40158 h 26.5748 V 102.7559 Z"
       id="path4239"
       inkscape:connector-curvature="0" />
    <text
       id="text4225"
       y="242.61696"
       x="190.84859"
       style="font-style:normal;font-weight:normal;line-height:0%;font-family:sans-serif;letter-spacing:0px;word-spacing:0px;fill:#1a1a1a;fill-opacity:1;stroke:none;stroke-width:1px;stroke-linecap:butt;stroke-linejoin:miter;stroke-opacity:1"
       xml:space="preserve"><tspan
         style="font-style:normal;font-variant:normal;font-weight:500;font-stretch:normal;font-size:8.75px;line-height:1.25;font-family:Lato;-inkscape-font-specification:'Lato Medium';fill:#1a1a1a"
         y="242.61696"
         x="190.84859"
         id="tspan4227"
         sodipodi:role="line">5-10 min</tspan></text>
    <text
       xml:space="preserve"
       style="font-style:normal;font-weight:normal;line-height:0%;font-family:sans-serif;letter-spacing:0px;word-spacing:0px;fill:#1a1a1a;fill-opacity:1;stroke:none;stroke-width:1px;stroke-linecap:butt;stroke-linejoin:miter;stroke-opacity:1"
       x="190.84859"
       y="292.40472"
       id="text4373"><tspan
         sodipodi:role="line"
         id="tspan4375"
         x="190.84859"
         y="292.40472"
         style="font-style:normal;font-variant:normal;font-weight:500;font-stretch:normal;font-size:8.75px;line-height:1.25;font-family:Lato;-inkscape-font-specification:'Lato Medium';fill:#1a1a1a">2-10 min</tspan></text>
    <text
       id="text4398"
       y="315.77972"
       x="195.92427"
       style="font-style:normal;font-weight:normal;line-height:0%;font-family:sans-serif;letter-spacing:0px;word-spacing:0px;fill:#1a1a1a;fill-opacity:1;stroke:none;stroke-width:1px;stroke-linecap:butt;stroke-linejoin:miter;stroke-opacity:1"
       xml:space="preserve"><tspan
         style="font-style:normal;font-variant:normal;font-weight:500;font-stretch:normal;font-size:8.75px;line-height:1.25;font-family:Lato;-inkscape-font-specification:'Lato Medium';fill:#1a1a1a"
         y="315.77972"
         x="195.92427"
         id="tspan4400"
         sodipodi:role="line">2-5 min</tspan></text>
  </g>
  <g
       transform="matrix(0.39975588,0,0,0.39975588,130.37687,40.75759)"
       style="display:inline;enable-background:new"
       inkscape:label="9whys"
       id="layer4-6">
      <g
         id="g4631">
        <circle
           style="opacity:1;fill:#ffffff;fill-opacity:1;stroke:none;stroke-width:0.265;stroke-miterlimit:4;stroke-dasharray:none;stroke-opacity:1"
           id="path4619"
           cx="18.34137"
           cy="210.97716"
           r="6.3142428" />
        <g
           id="g864">
          <path
             transform="scale(0.26458333)"
             id="path909"
             d="M 78.392578,762.5 A 60.535706,60.535706 0 0 0 17.857422,823.03516 60.535706,60.535706 0 0 0 78.392578,883.57227 60.535706,60.535706 0 0 0 138.92773,823.03516 60.535706,60.535706 0 0 0 78.392578,762.5 Z M 69.375,776.07227 a 21.517857,21.517857 0 0 1 2.148438,0.10742 21.517857,21.517857 0 0 1 2.126953,0.32031 21.517857,21.517857 0 0 1 2.083984,0.5332 21.517857,21.517857 0 0 1 2.019531,0.73633 21.517857,21.517857 0 0 1 1.9375,0.93555 21.517857,21.517857 0 0 1 1.833985,1.125 21.517857,21.517857 0 0 1 1.710937,1.30078 21.517857,21.517857 0 0 1 1.574219,1.4668 21.517857,21.517857 0 0 1 1.419922,1.61523 21.517857,21.517857 0 0 1 1.251953,1.75 21.517857,21.517857 0 0 1 1.070312,1.86523 21.517857,21.517857 0 0 1 0.876954,1.96485 21.517857,21.517857 0 0 1 0.679687,2.04101 21.517857,21.517857 0 0 1 0.470703,2.09766 21.517857,21.517857 0 0 1 0.259766,2.13477 21.517857,21.517857 0 0 1 0.05273,1.52343 21.517857,21.517857 0 0 1 -0.107422,2.14844 21.517857,21.517857 0 0 1 -0.320312,2.125 21.517857,21.517857 0 0 1 -0.533203,2.08399 21.517857,21.517857 0 0 1 -0.738282,2.02148 21.517857,21.517857 0 0 1 -0.935547,1.9375 21.517857,21.517857 0 0 1 -1.123046,1.83203 21.517857,21.517857 0 0 1 -1.302735,1.71289 21.517857,21.517857 0 0 1 -1.464843,1.57422 21.517857,21.517857 0 0 1 -1.617188,1.41992 21.517857,21.517857 0 0 1 -1.748047,1.25 21.517857,21.517857 0 0 1 -1.867187,1.07031 21.517857,21.517857 0 0 1 -1.962891,0.87891 21.517857,21.517857 0 0 1 -2.041016,0.67774 21.517857,21.517857 0 0 1 -2.097656,0.47265 21.517857,21.517857 0 0 1 -2.136719,0.25781 21.517857,21.517857 0 0 1 -1.52148,0.0547 A 21.517857,21.517857 0 0 1 67.226562,819 a 21.517857,21.517857 0 0 1 -2.126953,-0.32227 21.517857,21.517857 0 0 1 -2.083984,-0.53125 21.517857,21.517857 0 0 1 -2.019531,-0.73828 21.517857,21.517857 0 0 1 -1.9375,-0.93554 21.517857,21.517857 0 0 1 -1.833985,-1.12305 21.517857,21.517857 0 0 1 -1.710937,-1.30273 21.517857,21.517857 0 0 1 -1.574219,-1.4668 21.517857,21.517857 0 0 1 -1.419922,-1.61524 21.517857,21.517857 0 0 1 -1.251953,-1.75 21.517857,21.517857 0 0 1 -1.070312,-1.86523 21.517857,21.517857 0 0 1 -0.876954,-1.96289 21.517857,21.517857 0 0 1 -0.679687,-2.04102 21.517857,21.517857 0 0 1 -0.470703,-2.09961 21.517857,21.517857 0 0 1 -0.259766,-2.13476 21.517857,21.517857 0 0 1 -0.05273,-1.52149 21.517857,21.517857 0 0 1 0.107422,-2.14843 21.517857,21.517857 0 0 1 0.320312,-2.12696 21.517857,21.517857 0 0 1 0.533203,-2.08398 21.517857,21.517857 0 0 1 0.738282,-2.02149 21.517857,21.517857 0 0 1 0.935547,-1.93554 21.517857,21.517857 0 0 1 1.123046,-1.83399 21.517857,21.517857 0 0 1 1.302735,-1.71289 21.517857,21.517857 0 0 1 1.464843,-1.57422 A 21.517857,21.517857 0 0 1 56,780.73438 a 21.517857,21.517857 0 0 1 1.748047,-1.25196 21.517857,21.517857 0 0 1 1.867187,-1.07031 21.517857,21.517857 0 0 1 1.962891,-0.87891 21.517857,21.517857 0 0 1 2.041016,-0.67773 21.517857,21.517857 0 0 1 2.097656,-0.4707 21.517857,21.517857 0 0 1 2.136719,-0.25977 21.517857,21.517857 0 0 1 1.521484,-0.0527 z"
             style="fill:#000000;fill-opacity:1;stroke:none;stroke-width:3.76288;stroke-miterlimit:4;stroke-dasharray:none;stroke-opacity:1"
             inkscape:connector-curvature="0" />
          <g
             id="text838"
             style="font-style:normal;font-weight:normal;font-size:10.5833px;line-height:1.25;font-family:sans-serif;letter-spacing:0px;word-spacing:0px;fill:#000000;fill-opacity:1;stroke:none;stroke-width:0.264583"
             aria-label="9">
            <path
               id="path844"
               style="font-style:normal;font-variant:normal;font-weight:bold;font-stretch:normal;font-family:JournalSans;-inkscape-font-specification:'JournalSans Bold';stroke-width:0.264583"
               d="m 19.712653,212.47476 c 0.211667,-0.37042 0.370417,-0.65617 0.47625,-0.86784 0.116417,-0.22225 0.232834,-0.52916 0.34925,-0.93133 0.127,-0.40217 0.1905,-0.78317 0.1905,-1.15358 0,-0.59267 -0.232833,-1.09009 -0.687916,-1.50284 -0.455084,-0.41275 -1.016,-0.61383 -1.693334,-0.61383 -0.709083,0 -1.269999,0.22225 -1.693333,0.67733 -0.423333,0.45509 -0.635,0.97367 -0.635,1.56634 0,0.60325 0.1905,1.10066 0.5715,1.50283 0.391584,0.39158 0.846667,0.59267 1.386417,0.59267 0.201083,0 0.359833,-0.0106 0.455083,-0.0317 l -1.799166,2.88925 h 1.852083 z m -0.889,-2.3495 c -0.243416,0.30691 -0.645583,0.30691 -0.899583,0 -0.243416,-0.30692 -0.243416,-0.79375 0,-1.10067 0.254,-0.30692 0.656167,-0.30692 0.899583,0 0.243417,0.30692 0.243417,0.79375 0,1.10067 z"
               inkscape:connector-curvature="0" />
          </g>
          <g
             id="text842"
             style="font-style:normal;font-weight:normal;font-size:10.5833px;line-height:1.25;font-family:sans-serif;letter-spacing:0px;word-spacing:0px;fill:#000000;fill-opacity:1;stroke:none;stroke-width:0.264583"
             aria-label="whys">
            <path
               id="path847"
               style="font-style:normal;font-variant:normal;font-weight:bold;font-stretch:normal;font-size:8.46667px;font-family:sans-serif;-inkscape-font-specification:'sans-serif Bold';letter-spacing:-0.291042px;fill:#ffffff;fill-opacity:1;stroke-width:0.264583"
               d="m 17.537816,222.0152 -1.438672,4.64261 h -1.579232 l -0.946712,-3.12953 -0.930176,3.12953 H 11.043122 L 9.6168528,222.0152 h 1.5626952 l 0.79375,3.1998 0.992187,-3.1998 h 1.318783 l 0.942578,3.1998 0.781348,-3.1998 z"
               inkscape:connector-curvature="0" />
            <path
               id="path849"
               style="font-style:normal;font-variant:normal;font-weight:bold;font-stretch:normal;font-size:8.46667px;font-family:sans-serif;-inkscape-font-specification:'sans-serif Bold';letter-spacing:-0.291042px;fill:#ffffff;fill-opacity:1;stroke-width:0.264583"
               d="m 22.807159,226.65781 h -1.49655 v -2.30271 q 0,-0.28112 -0.02894,-0.5581 -0.02894,-0.28112 -0.09922,-0.41341 -0.08268,-0.15296 -0.243913,-0.22324 -0.157096,-0.0703 -0.44235,-0.0703 -0.202572,0 -0.413412,0.0661 -0.206705,0.0662 -0.450618,0.21084 v 3.29076 h -1.488281 v -6.43269 h 1.488281 v 2.30271 q 0.396875,-0.31006 0.760677,-0.47543 0.367936,-0.16536 0.81442,-0.16536 0.752409,0 1.174089,0.43821 0.425814,0.43822 0.425814,1.31052 z"
               inkscape:connector-curvature="0" />
            <path
               id="path851"
               style="font-style:normal;font-variant:normal;font-weight:bold;font-stretch:normal;font-size:8.46667px;font-family:sans-serif;-inkscape-font-specification:'sans-serif Bold';letter-spacing:-0.291042px;fill:#ffffff;fill-opacity:1;stroke-width:0.264583"
               d="m 25.984639,225.01656 1.058333,-3.00136 h 1.529622 l -2.579687,6.34586 h -1.612304 l 0.735872,-1.73633 -1.806608,-4.60953 h 1.562695 z"
               inkscape:connector-curvature="0" />
            <path
               id="path853"
               style="font-style:normal;font-variant:normal;font-weight:bold;font-stretch:normal;font-size:8.46667px;font-family:sans-serif;-inkscape-font-specification:'sans-serif Bold';letter-spacing:-0.291042px;fill:#ffffff;fill-opacity:1;stroke-width:0.264583"
               d="m 33.139138,225.18606 q 0,0.71934 -0.644922,1.16169 -0.644922,0.43821 -1.765267,0.43821 -0.620117,0 -1.124479,-0.11575 -0.504362,-0.11576 -0.810287,-0.25632 v -1.22369 h 0.136426 q 0.111621,0.0785 0.256315,0.17363 0.148828,0.0909 0.417546,0.19844 0.23151,0.0951 0.525032,0.16536 0.293522,0.0661 0.628386,0.0661 0.438216,0 0.649056,-0.0951 0.21084,-0.0992 0.21084,-0.28939 0,-0.16949 -0.124024,-0.24391 -0.124023,-0.0786 -0.471289,-0.14883 -0.165365,-0.0372 -0.450618,-0.0786 -0.28112,-0.0455 -0.512631,-0.10748 -0.632519,-0.16537 -0.938444,-0.51263 -0.305924,-0.3514 -0.305924,-0.8723 0,-0.66973 0.632519,-1.11208 0.636654,-0.44648 1.736328,-0.44648 0.520899,0 0.996322,0.10749 0.479557,0.10335 0.748275,0.22324 v 1.17409 H 32.80014 q -0.330729,-0.22738 -0.756543,-0.36794 -0.421679,-0.14469 -0.855761,-0.14469 -0.359668,0 -0.607715,0.0992 -0.243913,0.0992 -0.243913,0.28112 0,0.16537 0.111621,0.25219 0.111621,0.0868 0.525033,0.17363 0.227376,0.0455 0.487825,0.0909 0.264583,0.0413 0.529167,0.10749 0.587044,0.15296 0.868164,0.48369 0.28112,0.32659 0.28112,0.81855 z"
               inkscape:connector-curvature="0" />
          </g>
        </g>
      </g>
    </g>
</svg>
